<svg width="24" height="24" viewBox="0 0 24 24" fill="none" xmlns="http://www.w3.org/2000/svg">
  <!-- Cabeça do robô -->
  <rect x="6" y="4" width="12" height="10" rx="2" fill="#667eea" stroke="#4c51bf" stroke-width="1.5"/>
  
  <!-- Olhos -->
  <circle cx="9" cy="8" r="1.5" fill="white"/>
  <circle cx="15" cy="8" r="1.5" fill="white"/>
  <circle cx="9" cy="8" r="0.5" fill="#4c51bf"/>
  <circle cx="15" cy="8" r="0.5" fill="#4c51bf"/>
  
  <!-- Boca -->
  <rect x="10" y="11" width="4" height="1" rx="0.5" fill="white"/>
  
  <!-- Antenas -->
  <line x1="8" y1="4" x2="8" y2="2" stroke="#4c51bf" stroke-width="1.5" stroke-linecap="round"/>
  <line x1="16" y1="4" x2="16" y2="2" stroke="#4c51bf" stroke-width="1.5" stroke-linecap="round"/>
  <circle cx="8" cy="2" r="1" fill="#f59e0b"/>
  <circle cx="16" cy="2" r="1" fill="#10b981"/>
  
  <!-- Corpo -->
  <rect x="8" y="14" width="8" height="6" rx="1" fill="#e2e8f0" stroke="#cbd5e1" stroke-width="1"/>
  
  <!-- Braços -->
  <rect x="4" y="15" width="3" height="1.5" rx="0.75" fill="#cbd5e1"/>
  <rect x="17" y="15" width="3" height="1.5" rx="0.75" fill="#cbd5e1"/>
  
  <!-- Pernas -->
  <rect x="9" y="20" width="1.5" height="2" rx="0.75" fill="#cbd5e1"/>
  <rect x="13.5" y="20" width="1.5" height="2" rx="0.75" fill="#cbd5e1"/>
  
  <!-- Balão de chat -->
  <circle cx="20" cy="6" r="3" fill="#10b981" opacity="0.9"/>
  <path d="M18.5 7.5 L19.5 8.5 L21.5 6.5" stroke="white" stroke-width="1.5" stroke-linecap="round" stroke-linejoin="round"/>
</svg>