<svg width="24" height="24" viewBox="0 0 24 24" fill="none" xmlns="http://www.w3.org/2000/svg">
  <path d="M22 7.5C22 5.57 20.43 4 18.5 4S15 5.57 15 7.5c0 .58.16 1.12.41 1.6l-1.46 1.46C13.37 10.21 12.7 10 12 10s-1.37.21-1.95.56L8.59 9.1c.25-.48.41-1.02.41-1.6C9 5.57 7.43 4 5.5 4S2 5.57 2 7.5 3.57 11 5.5 11c.7 0 1.37-.21 1.95-.56l1.46 1.46c-.25.48-.41 1.02-.41 1.6 0 1.93 1.57 3.5 3.5 3.5s3.5-1.57 3.5-3.5c0-.58-.16-1.12-.41-1.6l1.46-1.46c.58.35 1.25.56 1.95.56 1.93 0 3.5-1.57 3.5-3.5z" fill="currentColor"/>
</svg>