<svg width="24" height="24" viewBox="0 0 24 24" fill="none" xmlns="http://www.w3.org/2000/svg">
  <path d="M16 4c0-1.11.89-2 2-2s2 .89 2 2-.89 2-2 2-2-.89-2-2zm4 18v-6h2.5l-2.54-7.63A1.5 1.5 0 0 0 18.54 7H17c-.83 0-1.54.5-1.85 1.22l-1.92 5.78c-.25.75.16 1.56.91 1.81.75.25 1.56-.16 1.81-.91l1.1-3.31V18c0 1.1.9 2 2 2s2-.9 2-2zM12.5 11.5c.83 0 1.5-.67 1.5-1.5s-.67-1.5-1.5-1.5S11 9.17 11 10s.67 1.5 1.5 1.5zM5.5 6c1.11 0 2-.89 2-2s-.89-2-2-2-2 .89-2 2 .89 2 2 2zm2.5 16v-7H6v7h2zm-2.5-8.5c.28 0 .5-.22.5-.5s-.22-.5-.5-.5-.5.22-.5.5.22.5.5.5z" fill="currentColor"/>
</svg>